HIERARCHY
ROOT Hips
{
	OFFSET	0.000000	0.000000	0.000000
	CHANNELS 6 Xposition Yposition Zposition Zrotation Xrotation Yrotation
	JOINT LeftHip
	{
		OFFSET	12.830505	-7.049846	-1.643436
		CHANNELS 3 Zrotation Xrotation Yrotation
		JOINT LeftKnee
		{
			OFFSET	0.620834	-39.957502	-1.919341
			CHANNELS 3 Zrotation Xrotation Yrotation
			JOINT LeftAnkle
			{
				OFFSET	-0.413890	-44.704761	-3.870325
				CHANNELS 3 Zrotation Xrotation Yrotation
				JOINT LeftAnkleEnd
				{
					OFFSET	0.164738	-8.918194	-6.555130
					CHANNELS 3 Zrotation Xrotation Yrotation
					End Site
					{
						OFFSET	-0.604053	0.000000	21.044330
					}
				}
			}
		}
	}
	JOINT RightHip
	{
		OFFSET	-12.830505	-7.049846	-1.643436
		CHANNELS 3 Zrotation Xrotation Yrotation
		JOINT RightKnee
		{
			OFFSET	-0.620834	-39.957502	-1.919341
			CHANNELS 3 Zrotation Xrotation Yrotation
			JOINT RightAnkle
			{
				OFFSET	0.413890	-44.704761	-3.870325
				CHANNELS 3 Zrotation Xrotation Yrotation
				JOINT RightAnkleEnd
				{
					OFFSET	-0.164738	-8.918194	-6.555130
					CHANNELS 3 Zrotation Xrotation Yrotation
					End Site
					{
						OFFSET	0.604053	0.000000	21.044330
					}
				}
			}
		}
	}
	JOINT Chest
	{
		OFFSET	0.000000	12.498171	1.820647
		CHANNELS 3 Zrotation Xrotation Yrotation
		JOINT Chest1
		{
			OFFSET	0.000000	7.620000	0.000000
			CHANNELS 3 Zrotation Xrotation Yrotation
			JOINT LeftCollar
			{
				OFFSET	9.167800	29.136339	-5.551221
				CHANNELS 3 Zrotation Xrotation Yrotation
				JOINT LeftShoulder
				{
					OFFSET	12.133453	-3.880866	1.461963
					CHANNELS 3 Zrotation Xrotation Yrotation
					JOINT LeftElbow
					{
						OFFSET	2.507115	-31.664910	-1.069404
						CHANNELS 3 Zrotation Xrotation Yrotation
						JOINT LeftWrist
						{
							OFFSET	4.116172	-24.512624	5.009439
							CHANNELS 3 Zrotation Xrotation Yrotation
							End Site
							{
								OFFSET	-0.213136	-10.931856	2.182134
							}
						}
					}
				}
			}
			JOINT RightCollar
			{
				OFFSET	-9.167800	29.136339	-5.551221
				CHANNELS 3 Zrotation Xrotation Yrotation
				JOINT RightShoulder
				{
					OFFSET	-12.133453	-3.880866	1.461963
					CHANNELS 3 Zrotation Xrotation Yrotation
					JOINT RightElbow
					{
						OFFSET	-2.507115	-31.664910	-1.069404
						CHANNELS 3 Zrotation Xrotation Yrotation
						JOINT RightWrist
						{
							OFFSET	-4.116172	-24.512624	5.009439
							CHANNELS 3 Zrotation Xrotation Yrotation
							End Site
							{
								OFFSET	0.213136	-10.931856	2.182134
							}
						}
					}
				}
			}
			JOINT Neck
			{
				OFFSET	0.000000	32.926275	-3.635654
				CHANNELS 3 Zrotation Xrotation Yrotation
				JOINT Head
				{
					OFFSET	0.000000	12.481178	4.646143
					CHANNELS 3 Zrotation Xrotation Yrotation
					End Site
					{
						OFFSET	0.000000	17.715205	-2.222063
					}
				}
			}
		}
	}
}
MOTION
Frames:     9
Frame Time: 0.016667
0.000000	101.821942	0.000000	4.379614	3.993140	-43.403931	11.336173	-20.329702	13.010468	0.485933	17.894873	4.892648	-7.507142	0.917044	-2.586483	0.	0.	0.	-12.678932	-12.306835	-9.988403	3.558785	15.573062	-4.661617	6.557702	-3.454628	12.776964	0.	0.	0.	-0.447585	-5.907240	43.228085	15.023572	10.195628	-40.261105	8.189900	-5.191068	1.497118	-3.144964	-14.547267	-6.180648	60.380936	-130.967438	69.329590	-5.302110	-4.938511	4.974762	-4.090357	-2.455638	-10.569058	-7.720554	-31.983839	8.757516	-67.532913	-126.368744	-77.858620	-6.869581	-4.757606	12.405997	-3.419437	2.141526	9.870361	-4.362885	-6.233602	2.244165	
4.173840	101.311915	-0.995502	1.939525	3.401660	-43.368023	11.336381	-20.339943	13.009232	0.499973	17.949553	4.885627	-7.507536	0.898218	-2.591057	0.	0.	0.	-12.675527	-12.308767	-9.992908	3.546862	15.623643	-4.634953	6.567845	-3.475606	12.760909	0.	0.	0.	-0.440352	-5.879037	43.225861	15.023990	10.191462	-40.242165	8.180229	-5.221268	1.482216	-3.096773	-14.606189	-6.200242	60.401993	-130.965469	69.341560	-5.413873	-4.923493	4.944417	-4.092118	-2.504971	-10.611731	-7.822000	-32.071434	8.801981	-67.588242	-126.315620	-77.887291	-6.786329	-4.729536	12.413663	-3.345325	2.408772	9.883323	-4.359715	-6.160357	2.086356	
4.189187	101.303505	-0.992648	1.866848	3.356845	-43.356647	11.340871	-20.336866	12.998809	0.542893	18.085907	4.838886	-7.524333	0.832742	-2.575335	0.	0.	0.	-12.658359	-12.271656	-9.993483	3.524634	15.711066	-4.545323	6.585289	-3.523975	12.689329	0.	0.	0.	-0.419040	-5.796590	43.219349	15.024208	10.189234	-40.232029	8.162392	-5.315673	1.485579	-2.981435	-14.765419	-6.203126	60.584789	-130.972702	69.502213	-5.694696	-4.932146	4.883478	-4.092218	-2.554380	-10.644822	-7.900820	-32.147465	8.826291	-67.655304	-126.265022	-77.923897	-6.664349	-4.708508	12.433361	-3.211617	2.735561	9.877347	-4.092188	-5.184511	1.673688	
4.176006	101.299242	-0.979788	1.842495	3.342052	-43.352848	11.343056	-20.331017	12.994121	0.565037	18.147703	4.804112	-7.541194	0.788684	-2.555274	0.	0.	0.	-12.650032	-12.244355	-9.989704	3.530089	15.730732	-4.524927	6.580409	-3.546370	12.669857	0.	0.	0.	-0.411738	-5.769128	43.217159	15.024208	10.189234	-40.232029	8.152948	-5.374094	1.494037	-2.914986	-14.839339	-6.231117	60.685692	-130.938705	69.573433	-5.823107	-4.959219	4.869702	-4.091315	-2.578515	-10.655581	-7.967125	-32.238194	8.801028	-67.733040	-126.214928	-77.974915	-6.524351	-4.700094	12.465962	-3.211617	2.735561	9.877347	-3.760646	-4.142218	1.352989	
4.171951	101.294203	-0.982534	1.835417	3.337767	-43.351746	11.341676	-20.346230	12.995684	0.589476	18.188534	4.789074	-7.557129	0.770299	-2.552736	0.	0.	0.	-12.655538	-12.287012	-10.000467	3.522775	15.805798	-4.501525	6.585507	-3.570923	12.657602	0.	0.	0.	-0.409605	-5.761156	43.216526	15.024208	10.189234	-40.232029	8.144809	-5.424491	1.501325	-2.865603	-14.904819	-6.269717	60.771683	-130.882233	69.599922	-5.893669	-4.994191	4.828549	-4.091012	-2.586636	-10.659208	-8.031123	-32.313080	8.766492	-67.779518	-126.178673	-77.995598	-6.421219	-4.698470	12.489920	-2.837192	3.548215	9.887051	-3.908996	-3.763703	0.853617	
4.172699	101.294978	-0.982892	1.828338	3.333482	-43.350639	11.343041	-20.338552	12.993280	0.589476	18.188534	4.789074	-7.557129	0.770299	-2.552736	0.	0.	0.	-12.653108	-12.279085	-9.999378	3.522775	15.805798	-4.501525	6.585507	-3.570923	12.657602	0.	0.	0.	-0.407471	-5.753184	43.215881	15.035781	10.198071	-40.232475	8.140086	-5.449670	1.503326	-2.845431	-14.948092	-6.268753	60.813736	-130.852020	69.604156	-5.939235	-5.015007	4.788762	-4.093595	-2.614707	-10.668111	-8.067065	-32.316887	8.751396	-67.769051	-126.172798	-77.977859	-6.393430	-4.705073	12.497541	-2.763944	3.739383	9.894389	-3.839289	-3.392010	0.590495	
4.171304	101.294465	-0.982338	1.828338	3.333482	-43.350639	11.342816	-20.339930	12.986702	0.587350	18.192268	4.773827	-7.557134	0.764991	-2.531007	0.	0.	0.	-12.653108	-12.279085	-9.999378	3.522775	15.805798	-4.501525	6.585507	-3.570923	12.657602	0.	0.	0.	-0.407471	-5.753184	43.215881	15.073309	10.226727	-40.233929	8.153544	-5.502671	1.529500	-2.837039	-15.024009	-6.285315	60.875031	-130.805801	69.586960	-6.002038	-5.006338	4.678174	-4.103450	-2.665944	-10.679242	-8.108924	-32.330093	8.727625	-67.759804	-126.163895	-77.941795	-6.402993	-4.714732	12.505532	-2.626281	4.104325	9.909505	-3.665378	-2.716474	-0.077103	
4.173476	101.292168	-0.986163	1.828338	3.333482	-43.350639	11.341069	-20.350592	12.935370	0.574030	18.205994	4.797533	-7.557157	0.757871	-2.501896	0.	0.	0.	-12.653876	-12.283988	-10.000533	3.522471	15.810807	-4.500815	6.585507	-3.570923	12.657602	0.	0.	0.	-0.407471	-5.753184	43.215881	15.114293	10.267799	-40.284397	8.196622	-5.572116	1.628304	-2.884863	-15.019043	-6.300898	60.916847	-130.819000	69.542290	-6.139693	-4.964012	4.557941	-4.105849	-2.726297	-10.640243	-8.155824	-32.312523	8.675696	-67.699333	-126.113800	-77.912598	-6.366369	-4.718596	12.545911	-2.491741	4.715813	9.933874	-3.177492	-1.706864	-1.199336	
4.180493	101.290822	-0.992020	1.834134	3.337025	-43.351547	11.338750	-20.364424	12.901146	0.565794	18.208908	4.879236	-7.556863	0.768223	-2.545259	0.	0.	0.	-12.655844	-12.290502	-10.001430	3.527723	15.829447	-4.495543	6.581652	-3.590543	12.653104	0.	0.	0.	-0.409194	-5.759736	43.216412	15.122633	10.286937	-40.345726	8.201052	-5.623178	1.712689	-2.877610	-14.942167	-6.262491	60.905556	-130.880646	69.547829	-6.219049	-4.954860	4.554183	-4.096940	-2.750428	-10.581914	-8.203896	-32.230488	8.638906	-67.566826	-126.157280	-77.783005	-6.434697	-4.690402	12.519862	-2.456443	5.161235	9.925695	-2.768281	-0.936434	-1.897392	
